<mxfile host="app.diagrams.net" modified="2024-05-17T13:31:48.412Z" agent="Mozilla/5.0 (Windows NT 10.0; Win64; x64) AppleWebKit/537.36 (KHTML, like Gecko) Chrome/124.0.0.0 Safari/537.36" etag="n5Np5z_Hh_ivsIVcQJPW" version="24.2.7" type="device">
  <diagram name="Page-1" id="LgQn40KETIR0E7uUy9S3">
    <mxGraphModel dx="760" dy="291" grid="1" gridSize="10" guides="1" tooltips="1" connect="1" arrows="1" fold="1" page="1" pageScale="1" pageWidth="827" pageHeight="1169" math="0" shadow="0">
      <root>
        <mxCell id="0" />
        <mxCell id="1" parent="0" />
        <mxCell id="_Y-C_nS7aQ6DhLtmvE2e-2" value="" style="rounded=0;whiteSpace=wrap;html=1;" vertex="1" parent="1">
          <mxGeometry x="100" y="110" width="430" height="290" as="geometry" />
        </mxCell>
        <mxCell id="_Y-C_nS7aQ6DhLtmvE2e-3" value="" style="rounded=0;whiteSpace=wrap;html=1;" vertex="1" parent="1">
          <mxGeometry x="100" y="110" width="110" height="290" as="geometry" />
        </mxCell>
        <mxCell id="_Y-C_nS7aQ6DhLtmvE2e-6" value="" style="rounded=0;whiteSpace=wrap;html=1;" vertex="1" parent="1">
          <mxGeometry x="100" y="110" width="110" height="30" as="geometry" />
        </mxCell>
        <mxCell id="_Y-C_nS7aQ6DhLtmvE2e-7" value="" style="rounded=0;whiteSpace=wrap;html=1;" vertex="1" parent="1">
          <mxGeometry x="100" y="140" width="110" height="30" as="geometry" />
        </mxCell>
        <mxCell id="_Y-C_nS7aQ6DhLtmvE2e-8" value="" style="rounded=0;whiteSpace=wrap;html=1;" vertex="1" parent="1">
          <mxGeometry x="100" y="170" width="110" height="30" as="geometry" />
        </mxCell>
        <mxCell id="_Y-C_nS7aQ6DhLtmvE2e-9" value="" style="rounded=0;whiteSpace=wrap;html=1;" vertex="1" parent="1">
          <mxGeometry x="100" y="200" width="110" height="30" as="geometry" />
        </mxCell>
        <mxCell id="_Y-C_nS7aQ6DhLtmvE2e-10" value="" style="rounded=0;whiteSpace=wrap;html=1;" vertex="1" parent="1">
          <mxGeometry x="100" y="230" width="110" height="30" as="geometry" />
        </mxCell>
        <mxCell id="_Y-C_nS7aQ6DhLtmvE2e-11" value="" style="rounded=0;whiteSpace=wrap;html=1;" vertex="1" parent="1">
          <mxGeometry x="100" y="260" width="110" height="30" as="geometry" />
        </mxCell>
        <mxCell id="_Y-C_nS7aQ6DhLtmvE2e-12" value="" style="rounded=0;whiteSpace=wrap;html=1;" vertex="1" parent="1">
          <mxGeometry x="100" y="290" width="110" height="30" as="geometry" />
        </mxCell>
        <mxCell id="_Y-C_nS7aQ6DhLtmvE2e-13" value="" style="rounded=0;whiteSpace=wrap;html=1;" vertex="1" parent="1">
          <mxGeometry x="100" y="320" width="110" height="30" as="geometry" />
        </mxCell>
        <mxCell id="_Y-C_nS7aQ6DhLtmvE2e-14" value="" style="rounded=0;whiteSpace=wrap;html=1;" vertex="1" parent="1">
          <mxGeometry x="220" y="160" width="290" height="210" as="geometry" />
        </mxCell>
        <mxCell id="_Y-C_nS7aQ6DhLtmvE2e-15" value="" style="rounded=0;whiteSpace=wrap;html=1;" vertex="1" parent="1">
          <mxGeometry x="225" y="185" width="280" height="35" as="geometry" />
        </mxCell>
      </root>
    </mxGraphModel>
  </diagram>
</mxfile>
